<svg width="25" height="16" viewBox="0 0 25 16" fill="none" xmlns="http://www.w3.org/2000/svg">
<path fill-rule="evenodd" clip-rule="evenodd" d="M16.1691 14.3403C16.3194 14.5708 16.3314 14.8652 16.2003 15.1072C16.0692 15.3492 15.8162 15.5 15.5409 15.5H1.70906C1.43384 15.5 1.18075 15.3492 1.04968 15.1072C0.9186 14.8652 0.930599 14.5708 1.08094 14.3403C2.13666 12.7153 3.68952 11.4752 5.50781 10.805C3.44393 9.43099 2.5231 6.86767 3.24084 4.49441C3.95857 2.12114 6.14558 0.497718 8.625 0.497718C11.1044 0.497718 13.2914 2.12114 14.0092 4.49441C14.7269 6.86767 13.8061 9.43099 11.7422 10.805C13.5605 11.4752 15.1133 12.7153 16.1691 14.3403ZM24.4106 14.3263C23.3546 12.7081 21.8052 11.4733 19.9922 10.805C22.4552 9.14592 23.2042 5.858 21.7028 3.29584C20.2014 0.733672 16.9669 -0.219983 14.3156 1.11781C14.2167 1.16887 14.1456 1.26121 14.1216 1.36986C14.0975 1.47851 14.1229 1.59225 14.1909 1.68031C16.1407 4.11238 16.2786 7.53091 14.5312 10.1122C14.4167 10.2832 14.4615 10.5146 14.6316 10.6306C15.7415 11.4053 16.6916 12.3866 17.43 13.5209C17.7278 13.977 17.8494 14.5258 17.7722 15.065C17.7546 15.1735 17.7855 15.2843 17.8568 15.3681C17.9281 15.4518 18.0325 15.5 18.1425 15.5H23.7956C24.1352 15.5001 24.4325 15.2721 24.5203 14.9441C24.573 14.7319 24.5332 14.5073 24.4106 14.3263Z" fill="#0C8C96"/>
</svg>
