<svg width="20" height="18" viewBox="0 0 20 18" fill="none" xmlns="http://www.w3.org/2000/svg">
<path fill-rule="evenodd" clip-rule="evenodd" d="M11 4.5V8.57531L14.3862 10.6069C14.7414 10.8202 14.8564 11.2811 14.6431 11.6362C14.4298 11.9914 13.9689 12.1064 13.6138 11.8931L9.86375 9.64312C9.63799 9.50749 9.49992 9.26337 9.5 9V4.5C9.5 4.08579 9.83579 3.75 10.25 3.75C10.6642 3.75 11 4.08579 11 4.5ZM10.25 0C7.86024 -0.0059526 5.5674 0.944332 3.8825 2.63906C3.20094 3.32906 2.59531 3.99281 2 4.6875V3C2 2.58579 1.66421 2.25 1.25 2.25C0.835786 2.25 0.5 2.58579 0.5 3V6.75C0.5 7.16421 0.835786 7.5 1.25 7.5H5C5.41421 7.5 5.75 7.16421 5.75 6.75C5.75 6.33579 5.41421 6 5 6H2.84375C3.51406 5.21062 4.18156 4.46719 4.94281 3.69656C7.8518 0.787593 12.5611 0.764893 15.498 3.64568C18.4349 6.52648 18.503 11.2354 15.6507 14.1999C12.7984 17.1644 8.09035 17.278 5.09844 14.4544C4.9035 14.2702 4.6251 14.2039 4.3681 14.2806C4.1111 14.3574 3.91454 14.5653 3.85247 14.8263C3.79041 15.0872 3.87225 15.3614 4.06719 15.5456C7.00577 18.3187 11.4322 18.7935 14.8922 16.7069C18.3521 14.6202 19.9973 10.4835 18.9156 6.59055C17.8339 2.69759 14.2904 0.00262976 10.25 0Z" fill="#0C8C96"/>
</svg>
