<svg width="19" height="19" viewBox="0 0 19 19" fill="none" xmlns="http://www.w3.org/2000/svg">
<path fill-rule="evenodd" clip-rule="evenodd" d="M17.7653 7.72844L10.2653 0.652188C10.2616 0.648989 10.2582 0.645543 10.255 0.641875C9.68281 0.121501 8.80876 0.121501 8.23656 0.641875L8.22625 0.652188L0.734688 7.72844C0.42573 8.01254 0.249936 8.41309 0.25 8.83281V17.5C0.25 18.3284 0.921573 19 1.75 19H6.25C7.07843 19 7.75 18.3284 7.75 17.5V13H10.75V17.5C10.75 18.3284 11.4216 19 12.25 19H16.75C17.5784 19 18.25 18.3284 18.25 17.5V8.83281C18.2501 8.41309 18.0743 8.01254 17.7653 7.72844ZM16.75 17.5H12.25V13C12.25 12.1716 11.5784 11.5 10.75 11.5H7.75C6.92157 11.5 6.25 12.1716 6.25 13V17.5H1.75V8.83281L1.76031 8.82344L9.25 1.75L16.7406 8.82156L16.7509 8.83094L16.75 17.5Z" fill="#0C8C96"/>
</svg>
