<svg width="24" height="24" viewBox="0 0 24 24" fill="none" xmlns="http://www.w3.org/2000/svg">
<path d="M8 6H3C2.44772 6 2 6.44772 2 7V17C2 17.5523 2.44772 18 3 18H8C8.55228 18 9 17.5523 9 17V7C9 6.44772 8.55228 6 8 6Z" stroke="black" stroke-width="2" stroke-linecap="round" stroke-linejoin="round"/>
<path d="M13 8.32001C13.6392 9.44115 13.9754 10.7095 13.9754 12C13.9754 13.2906 13.6392 14.5589 13 15.68" stroke="black" stroke-width="2" stroke-linecap="round" stroke-linejoin="round"/>
<path d="M16.46 6.20999C17.459 7.97618 17.9841 9.97082 17.9841 12C17.9841 14.0292 17.459 16.0238 16.46 17.79" stroke="black" stroke-width="2" stroke-linecap="round" stroke-linejoin="round"/>
<path d="M19.91 4.10001C21.2876 6.50464 22.0132 9.2274 22.0149 11.9987C22.0167 14.77 21.2945 17.4936 19.92 19.9" stroke="black" stroke-width="2" stroke-linecap="round" stroke-linejoin="round"/>
</svg>
