<svg width="21" height="20" viewBox="0 0 21 20" fill="none" xmlns="http://www.w3.org/2000/svg">
<path fill-rule="evenodd" clip-rule="evenodd" d="M10.75 5.5C8.26472 5.5 6.25 7.51472 6.25 10C6.25 12.4853 8.26472 14.5 10.75 14.5C13.2353 14.5 15.25 12.4853 15.25 10C15.2474 7.51579 13.2342 5.50258 10.75 5.5ZM10.75 13C9.09315 13 7.75 11.6569 7.75 10C7.75 8.34315 9.09315 7 10.75 7C12.4069 7 13.75 8.34315 13.75 10C13.75 11.6569 12.4069 13 10.75 13ZM19 10.2025C19.0037 10.0675 19.0037 9.9325 19 9.7975L20.3988 8.05C20.5475 7.86393 20.599 7.61827 20.5375 7.38813C20.3082 6.52619 19.9652 5.69861 19.5175 4.92719C19.3986 4.72249 19.1901 4.58592 18.955 4.55875L16.7313 4.31125C16.6388 4.21375 16.545 4.12 16.45 4.03L16.1875 1.80063C16.1601 1.56531 16.0232 1.35677 15.8181 1.23813C15.0464 0.791263 14.2189 0.448595 13.3572 0.219063C13.1269 0.157836 12.8812 0.209687 12.6953 0.35875L10.9525 1.75C10.8175 1.75 10.6825 1.75 10.5475 1.75L8.8 0.354063C8.61393 0.205326 8.36827 0.153827 8.13813 0.215312C7.27633 0.445025 6.4488 0.788016 5.67719 1.23531C5.47249 1.35417 5.33592 1.56268 5.30875 1.79781L5.06125 4.02531C4.96375 4.11844 4.87 4.21219 4.78 4.30656L2.55063 4.5625C2.31531 4.58988 2.10677 4.72682 1.98813 4.93188C1.54126 5.70359 1.19859 6.5311 0.969063 7.39281C0.907836 7.6231 0.959687 7.86878 1.10875 8.05469L2.5 9.7975C2.5 9.9325 2.5 10.0675 2.5 10.2025L1.10406 11.95C0.955326 12.1361 0.903827 12.3817 0.965312 12.6119C1.19462 13.4738 1.53763 14.3014 1.98531 15.0728C2.10417 15.2775 2.31268 15.4141 2.54781 15.4412L4.77156 15.6887C4.86469 15.7862 4.95844 15.88 5.05281 15.97L5.3125 18.1994C5.33988 18.4347 5.47682 18.6432 5.68188 18.7619C6.45359 19.2087 7.2811 19.5514 8.14281 19.7809C8.3731 19.8422 8.61878 19.7903 8.80469 19.6413L10.5475 18.25C10.6825 18.2537 10.8175 18.2537 10.9525 18.25L12.7 19.6488C12.8861 19.7975 13.1317 19.849 13.3619 19.7875C14.2238 19.5582 15.0514 19.2152 15.8228 18.7675C16.0275 18.6486 16.1641 18.4401 16.1912 18.205L16.4387 15.9813C16.5362 15.8888 16.63 15.795 16.72 15.7L18.9494 15.4375C19.1847 15.4101 19.3932 15.2732 19.5119 15.0681C19.9587 14.2964 20.3014 13.4689 20.5309 12.6072C20.5922 12.3769 20.5403 12.1312 20.3913 11.9453L19 10.2025ZM17.4906 9.59313C17.5066 9.86414 17.5066 10.1359 17.4906 10.4069C17.4795 10.5924 17.5376 10.7755 17.6537 10.9206L18.9841 12.5828C18.8314 13.0679 18.636 13.5385 18.4 13.9891L16.2812 14.2291C16.0967 14.2495 15.9264 14.3377 15.8031 14.4766C15.6227 14.6795 15.4305 14.8717 15.2275 15.0522C15.0887 15.1754 15.0005 15.3458 14.98 15.5303L14.7447 17.6472C14.2942 17.8833 13.8236 18.0787 13.3384 18.2313L11.6753 16.9009C11.5422 16.7946 11.3769 16.7367 11.2066 16.7369H11.1616C10.8905 16.7528 10.6188 16.7528 10.3478 16.7369C10.1623 16.7257 9.97918 16.7838 9.83406 16.9L8.16719 18.2313C7.68206 18.0786 7.21146 17.8831 6.76094 17.6472L6.52094 15.5312C6.50046 15.3467 6.41227 15.1764 6.27344 15.0531C6.07048 14.8727 5.87827 14.6805 5.69781 14.4775C5.57456 14.3387 5.4042 14.2505 5.21969 14.23L3.10281 13.9937C2.86674 13.5433 2.67128 13.0727 2.51875 12.5875L3.84906 10.9244C3.96522 10.7793 4.02336 10.5962 4.01219 10.4106C3.99625 10.1396 3.99625 9.86789 4.01219 9.59688C4.02336 9.41133 3.96522 9.22824 3.84906 9.08313L2.51875 7.41719C2.6714 6.93206 2.86685 6.46146 3.10281 6.01094L5.21875 5.77094C5.40326 5.75046 5.57362 5.66227 5.69688 5.52344C5.87733 5.32048 6.06954 5.12827 6.2725 4.94781C6.41188 4.82448 6.50043 4.65373 6.52094 4.46875L6.75625 2.35281C7.20672 2.11674 7.67733 1.92128 8.1625 1.76875L9.82563 3.09906C9.97074 3.21522 10.1538 3.27336 10.3394 3.26219C10.6104 3.24625 10.8821 3.24625 11.1531 3.26219C11.3387 3.27336 11.5218 3.21522 11.6669 3.09906L13.3328 1.76875C13.8179 1.9214 14.2885 2.11685 14.7391 2.35281L14.9791 4.46875C14.9995 4.65326 15.0877 4.82362 15.2266 4.94688C15.4295 5.12733 15.6217 5.31954 15.8022 5.5225C15.9254 5.66133 16.0958 5.74952 16.2803 5.77L18.3972 6.00531C18.6333 6.45578 18.8287 6.9264 18.9813 7.41156L17.6509 9.07469C17.5337 9.22103 17.4755 9.406 17.4878 9.59313H17.4906Z" fill="#0C8C96"/>
</svg>
